<svg width="118" height="200" viewBox="0 0 118 200" fill="none" xmlns="http://www.w3.org/2000/svg">
<path d="M40.2355 6.96387C36.92 8.82532 22.3606 28.3236 13.6174 49.6207C6.95849 65.8406 5.0566 89.1428 10.434 102.585C14 111.5 22.9362 119.86 33.2601 126.959C43.5 134 53.7759 136.204 67 134C76 132.5 88.5 126 92.066 119.995C94.9794 115.089 96.6127 108.528 94 102C92.9453 99.365 88.1972 95.2347 84.4436 94.1953C77.7983 92.3552 68.8531 94.1953 61.6768 99.9144C54.3356 105.765 48.3897 114.83 46.9293 125.383C45.6402 134.697 47.4162 148.325 56.473 161.005C64.2106 171.837 75.5997 177.918 82.0745 180.552C90.1316 183.831 100.06 186.954 112.431 187.356M112.431 187.356L102 168.5M112.431 187.356L85.8759 194.663" stroke="black" stroke-width="2.5" stroke-linecap="round" stroke-linejoin="round"/>
</svg>
