<svg width="265" height="123" viewBox="0 0 265 123" fill="none" xmlns="http://www.w3.org/2000/svg">
<path d="M85.6973 105.474C60.5795 111.188 39.7415 110.198 30.375 107.31C25.8149 105.904 22.8597 102.125 22.8597 97.5127C22.8597 91.1062 23.581 83.9424 31.7353 67.6065C36.7467 57.5668 45.3856 51.1926 55.8553 43.6892C72.9979 31.4034 92.6355 22.8708 113.333 16.2639C126.145 12.1743 144.218 8.15697 156.685 6.7687C173.711 4.87275 187.244 4.9016 198.521 6.97137C209.779 9.03784 218.816 13.1425 222.867 18.2596C225.437 21.5065 226.254 22.7928 226.66 26.3009C227.648 34.8558 223.19 43.584 216.073 52.7829C207.454 63.9222 194.635 71.6564 173.711 82.2585C158.731 89.8488 133.75 99.5494 112.023 106.265C90.2968 112.981 72.2887 115.811 60.4392 117.14C32.6483 120.258 18.4202 111.212 14.0078 106.679C9.80128 102.357 9.53831 92.7115 14.0819 83.2018C18.6313 73.68 27.6893 63.6891 39.7415 54.0926C45.6713 49.371 52.051 46.0396 64.2357 40.5826C76.4204 35.1256 94.4285 27.9224 112.195 22.2822C129.961 16.642 146.94 12.7831 160.961 10.2807C185.396 5.91954 203.343 5.94624 217.082 6.97916C240.73 8.75692 249.909 16.6002 252.502 21.5065C255.036 26.3009 255.453 35.4592 248.538 43.8139C240.045 54.0757 224.313 64.8741 199.449 77.1874C185.912 83.8912 169.439 89.2435 149.77 93.9638C130.102 98.6841 108.196 102.235 90.3981 103.494C62.5817 105.462 50.1519 103.781 45.1907 102.235" stroke="black" stroke-width="2.5" stroke-linecap="round"/>
</svg>
