<svg width="1210" height="10" viewBox="0 0 1210 10" fill="none" xmlns="http://www.w3.org/2000/svg">
<path d="M1146.16 3.50222C1147.59 3.48423 1149.61 3.5815 1151.3 3.58663C1158.36 3.60912 1160.98 3.67656 1167.38 3.7148C1176.86 3.77161 1205 3.64375 1205 4.31958C1205 4.3196 1205 4.31961 1205 4.31963C1205 4.32626 1205 4.33296 1204.99 4.33974C1204.89 4.46849 1202.5 4.60905 1202.14 4.75466C1201.79 4.90033 1202.06 5.84071 1198.66 5.89358C1193.73 5.96325 1181.9 5.72213 1179.27 5.73281C1177.48 5.74018 1175.26 5.82567 1172.97 5.84085C1165.56 5.88977 1161.68 5.82725 1155 6.05947C1152.33 5.9371 1149.66 5.81472 1146.99 5.69235C1143.51 5.74909 1138.23 5.58769 1136.11 5.59658C1134.38 5.60389 1133.36 5.70066 1131.55 5.70516C1129.52 5.71075 1126.4 5.6063 1122.71 5.62203C1116.66 5.64734 1115.58 5.89979 1111.95 5.93185C1108.18 5.96502 1102.32 5.82782 1097.52 5.91665C1096.92 5.94442 1096.31 5.97219 1095.71 5.99996C1096.14 6.06277 1096.57 6.12557 1097.01 6.18838C1094.58 6.21762 1093.54 6.0889 1091.32 6.08657C1088.7 6.08376 1087.37 6.20579 1085.61 6.20523C1084.16 6.20466 1082.21 6.10681 1080.34 6.11294C1077.61 6.12138 1078.21 6.26265 1076.74 6.28909C1076.15 6.29936 1065.33 6.37732 1064.72 6.37844C1060.07 6.38401 1059.67 6.19064 1055.97 6.17373C1045.69 6.12761 1035.15 6.28387 1025.65 6.34292C1021.41 6.36934 1016.98 6.3581 1012.75 6.32717C1019.41 5.83227 1004.67 5.44711 1010.18 6.22152C1005.47 6.11135 1002.14 6.32041 997.675 6.28506C994.789 6.262 992.792 6.15462 988.671 6.15744C981.359 6.16311 973.36 6.46833 971.257 5.91665C962.674 6.01391 955.239 5.81379 952.146 6.30081C949.932 6.33056 944.26 6.04047 941.777 6.00106C939.429 5.96394 921.415 5.83296 918.468 5.82565C915.521 5.81834 910.362 5.81038 907.88 5.85311C904.762 5.90598 902.582 6.41106 897.031 5.82052C890.576 5.86831 888.276 5.85141 882.272 5.7828C881.186 5.77039 881.063 5.68272 880.428 5.68264C879.12 5.68264 876.894 5.74743 874.559 5.75533C870.719 5.76827 868.528 5.58379 868.956 5.86556C866.425 5.91281 863.893 5.96005 861.362 6.00729C860.474 5.95291 859.586 5.89852 858.698 5.84414C857.344 5.90341 855.991 5.96267 854.637 6.02194C856.227 5.6142 846.701 5.85481 849.794 6.08877C844.887 6.00442 839.98 5.92007 835.072 5.83572C835.757 5.37231 824.298 5.78224 825.262 6.03421C824.701 6.03384 824.139 6.03347 823.578 6.03311C818.662 5.90994 814.148 6.01068 808.156 5.928C802.164 5.84533 802.727 5.80021 800.905 5.58706C799.495 5.59927 798.085 5.61147 796.675 5.62368C789.277 6.20803 790.585 5.19631 777.916 5.64456C773.868 5.2773 763.891 5.47021 757.275 5.58157C756.506 5.5945 756.492 5.66579 755.467 5.68777C752.961 5.74063 746.565 5.64899 746.783 5.87893C744.569 5.8124 742.355 5.74587 740.141 5.67935C738.331 5.72115 736.522 5.76296 734.712 5.80477C734.721 5.87655 734.73 5.94833 734.74 6.02011C731.095 5.77547 725.369 5.86949 722.545 5.811C721.983 5.79914 721.861 5.70013 720.114 5.67312C718.072 5.64106 714.266 5.67036 711.833 5.63943C710.887 5.74911 709.941 5.85879 708.995 5.96847C704.643 6.02796 703.114 5.73846 700.558 5.71597C700.098 5.71206 691.704 5.73285 691.252 5.73904C687.549 5.78803 688.598 6.03466 677.89 5.98184C675.983 5.97228 674.44 5.88694 672.717 5.88351C669.672 5.87732 660.498 6.07087 659.776 6.24972C656.083 6.02588 646.202 6.11738 643.292 6.0527C642.413 6.03281 642.215 5.89024 639.515 5.85989C637.327 5.83514 631.69 5.94931 628.913 5.9302C625.967 5.90939 624.915 5.78962 623.594 5.78115C622.347 5.77328 621.197 5.86997 619.497 5.86941C614.191 5.86604 609.386 5.71041 605.192 5.70754C599.127 5.70304 593.769 5.98931 588.694 6.11642C587.435 6.09786 586.197 6.03642 584.877 6.03585C568.54 6.02685 550.111 5.97411 533.726 5.91281C526.119 5.88465 507.204 5.49607 512.252 6.14443C509.609 6.25798 490.388 5.99658 486.732 5.99264C483.077 5.98874 480.179 6.105 477.306 6.10671C468.637 6.11178 462.532 6.028 451.978 6.12924C449.253 6.1557 446.332 6.29344 444.718 6.29184C442.774 6.28959 440.682 6.15638 438.163 6.14791C432.159 6.12879 420.971 6.17261 415.211 6.14956C414.159 6.14506 413.79 6.0281 412.286 5.99154C406.428 5.8487 399.863 5.86109 401.025 6.23452C393.517 6.02251 386.572 6.2159 379.615 6.22775C364.904 6.25193 338.107 6.16477 325.292 6.32168C317.212 6.42067 317.418 6.58816 305.521 6.44363C302.88 6.41158 300.251 6.36834 297.048 6.3301C289.54 6.24012 282.652 5.93071 276.929 6.30355C268.59 6.20685 261.949 6.27543 255.762 5.95657C255.033 6.03305 254.303 6.10952 253.574 6.186C252.552 6.18789 251.529 6.18978 250.507 6.19168C250.188 6.11874 249.869 6.0458 249.55 5.97286C242.226 5.95322 232.935 6.25301 226.735 6.25082C216.341 6.24744 189.57 6.13098 179.714 6.03256C174.481 5.98029 174.2 6.13651 171.204 5.81539C170.034 5.83773 168.863 5.86007 167.693 5.88241C166.96 5.95272 166.228 6.02304 165.496 6.09335C158.782 6.09616 150.82 5.98694 144.425 5.98806C132.771 5.99031 115.272 6.18383 103.569 6.05673C100.635 6.02467 96.9669 5.87967 94.0934 5.88131C89.9113 5.88356 88.8949 6.12419 83.5878 6.12869C74.4409 6.136 57.4065 5.85646 48.761 5.87783C46.1932 5.88402 44.9951 5.97356 43.2221 5.98312C35.7872 6.02417 29.6832 6.01688 22.554 6.15524C14.8991 5.92465 15.5604 5.62701 13.1881 5.32668C11.3903 5.10001 5.87744 4.5747 5.09486 4.37618C4.54515 4.23671 6.5976 4.05729 5.82729 3.90377C14.9985 3.78116 18.8515 3.91613 26.2985 4.1321C40.0513 4.1235 53.8041 4.11489 67.5568 4.10628C68.8081 4.19008 70.0593 4.27389 71.3105 4.35769C71.3105 4.35787 71.3105 4.35805 71.3105 4.35824C76.592 4.45495 78.8305 4.23913 81.6789 4.19015C108.948 3.72109 162.62 4.08821 192.641 4.14107C199.11 4.15232 220.154 4.03939 224.593 4.1755C225.742 4.21094 226.062 4.34016 227.285 4.34579C238.208 4.26894 249.132 4.1921 260.056 4.11526C282.52 4.31604 305.743 4.15022 328.377 4.11928C389.617 4.03548 450.244 3.93363 510.481 3.96456C522.122 3.97075 536.895 3.87393 548.292 3.93636C553.048 3.96224 555.03 4.16975 561.279 4.0151C561.344 4.071 561.41 4.12691 561.476 4.18282C566.929 4.11533 570.413 3.98811 576.527 3.97518C581.675 3.96449 595.296 3.95619 599.846 3.97756C602.205 3.98824 601.326 4.09271 603.526 4.09218C607.292 4.0905 615.339 3.94607 620.536 3.94607C625.244 3.94607 633.181 4.06641 636.801 4.04897C649.836 3.9871 664.035 3.80872 677.926 3.85653C681.764 3.87005 686.699 4.00551 687.901 4.00173C690.248 3.99386 690.948 3.86227 692.524 3.84536C700.534 3.75987 713.019 3.91624 720.869 3.92244C746.451 3.94269 773.552 3.88526 799.023 3.90944C815.116 3.92463 841.858 3.90147 856.715 4.00045C859.919 4.02182 859.065 4.16598 861.755 4.16598C864.738 4.16594 866.354 4.06856 867.748 4.06069C877.397 4.00557 898.697 3.90713 907.807 4.00667C909.542 4.02579 910.801 4.13874 911.839 4.13833C912.365 4.13833 913.553 4.06124 915.204 4.05337C929.78 3.98363 940.408 4.02858 954.691 4.05501C982.045 4.10506 1013.74 3.96166 1042.48 4.03927C1048.74 4.05614 1053.03 4.27955 1053.91 4.2773C1055.84 4.2728 1057.08 4.12253 1060.99 4.08541C1074 3.9634 1091.52 4.12375 1103.9 4.04842C1110.01 4.01131 1118.41 3.82055 1124.43 3.77834C1129.24 3.7446 1140.58 3.81943 1142.71 3.73568C1144.01 3.68508 1144.61 3.52256 1146.16 3.50222ZM984.281 6.03201C985.137 5.77217 976.14 5.98811 979.515 6.12759C980.275 6.15899 984.06 6.09946 984.281 6.03201ZM563.014 5.58083C563.096 5.65505 563.178 5.72927 563.261 5.80349C564.442 5.77261 565.623 5.74172 566.804 5.71084C566.14 5.66622 565.477 5.62161 564.813 5.57699C564.213 5.57827 563.613 5.57955 563.014 5.58083Z" fill="black"/>
</svg>
