<svg width="24" height="4" viewBox="0 0 24 4" fill="none" xmlns="http://www.w3.org/2000/svg">
<path d="M2.04227 0.0995633C2.23208 -0.0553033 2.59808 0.00794272 2.79941 0.0426775C2.8031 0.0432471 2.80679 0.0438168 2.81049 0.0443865C2.85827 0.0526143 2.90346 0.0547517 2.95642 0.057082C3.0827 0.0626389 3.2533 0.0701852 3.60937 0.168901C3.71298 0.165263 3.8166 0.163285 3.9202 0.163285C5.03903 0.163287 6.15787 0.29205 7.2767 0.446249C7.29084 0.445454 7.30521 0.444635 7.31973 0.443808C7.60035 0.427827 7.94832 0.408052 8.16696 0.46456C8.44493 0.536405 8.63373 0.603072 8.78879 0.660609C9.67745 0.784683 10.5661 0.895552 11.4548 0.941376C11.7333 0.955737 12.0119 0.963592 12.2904 0.963593C12.5469 0.963593 12.8034 0.958676 13.0599 0.949433C13.2093 0.915729 13.3513 0.875687 13.483 0.838591C13.668 0.786463 13.8328 0.74017 13.9688 0.725063C14.2967 0.68867 14.6686 0.74611 14.9448 0.788785C14.9899 0.795759 15.0325 0.802363 15.072 0.808073C15.2913 0.786935 15.5107 0.764306 15.73 0.741177C15.7447 0.754045 15.7594 0.767463 15.7744 0.781217C15.9616 0.952869 16.1918 0.950669 16.554 0.94748C16.7118 0.946091 16.8946 0.944586 17.1098 0.957001C17.2485 0.965001 17.3198 1.03306 17.378 1.0886C17.3951 1.10493 17.4112 1.1202 17.4274 1.13254C17.4832 1.17481 17.5419 1.12913 17.6113 1.07517C17.7013 1.00516 17.8093 0.92108 17.9519 0.997041C18.4065 1.23908 18.6068 1.07487 18.7583 0.950653C18.8028 0.914216 18.8431 0.881293 18.8843 0.863005C19.018 0.803725 19.2086 0.86246 19.3526 0.943085C19.4668 1.00702 19.6952 0.943636 19.8685 0.863005C19.934 0.832517 20.0226 0.831751 20.127 0.831022C20.2349 0.830269 20.3599 0.829583 20.4935 0.795377C20.8313 0.708937 21.0108 0.66704 21.1551 0.633509C21.1962 0.623949 21.2345 0.615244 21.2728 0.606165C21.3938 0.577475 21.5439 0.553839 21.6959 0.529991C21.8778 0.501453 22.0624 0.472475 22.2028 0.433798C22.5669 0.47473 22.9309 0.525369 23.295 0.575891C23.4819 0.60212 23.6613 0.749846 23.7935 0.993379C23.9257 1.23711 24 1.55491 24 1.88426C24 2.21363 23.9257 2.53141 23.7935 2.77515C23.6613 3.01868 23.4819 3.16665 23.295 3.19288C22.9183 3.24516 22.5415 3.29747 22.1648 3.33913C21.7059 3.38986 21.247 3.42482 20.7881 3.42482C20.4671 3.42482 20.1461 3.41697 19.8251 3.40285C19.7921 3.40139 19.759 3.39979 19.726 3.39821C19.4563 3.47931 19.1871 3.55307 18.9975 3.57936C18.8409 3.60107 18.7267 3.55779 18.629 3.52077C18.5617 3.49529 18.5022 3.47275 18.4419 3.47634C18.4096 3.47826 18.3654 3.48327 18.3121 3.48928C18.0945 3.51382 17.725 3.55547 17.3879 3.47634C17.2383 3.44122 17.0645 3.37201 16.8986 3.30592C16.6614 3.21143 16.4402 3.12335 16.3285 3.1504C16.1324 3.19794 15.9075 3.1577 15.7088 3.12208C15.5192 3.0881 15.3535 3.05843 15.2592 3.11329C15.1465 3.17888 15.0505 3.15214 14.9076 3.11256C14.8086 3.0851 14.687 3.05159 14.5217 3.03809C14.331 3.02252 14.196 2.97657 14.0813 2.93751C13.9198 2.88252 13.7983 2.84119 13.6173 2.91724C13.4162 3.00174 13.206 3.05551 13.0404 3.02882C12.965 3.01666 12.8787 3.01961 12.789 3.02271C12.6702 3.02682 12.5452 3.03106 12.4311 3.00074C12.3371 2.97575 12.2594 2.91181 12.1906 2.85523C12.1692 2.83758 12.1486 2.82073 12.1286 2.80591C12.0537 2.80673 11.9789 2.80793 11.904 2.80982C11.8918 2.82011 11.8791 2.83151 11.8658 2.84327C11.799 2.90229 11.7169 2.97468 11.6153 3.01075C11.4544 3.06783 11.3133 3.03209 11.1644 2.99415C11.0485 2.96461 10.9279 2.93378 10.7896 2.94483C10.6953 2.95237 10.5879 2.97851 10.4815 3.0044C10.3234 3.04286 10.1674 3.0807 10.0589 3.05665C10.0183 3.04763 9.98333 3.00748 9.94876 2.96754C9.94861 2.96729 9.94846 2.96705 9.9483 2.9668C9.94596 2.96409 9.9436 2.96145 9.94125 2.95875C9.67713 2.98934 9.41298 3.02307 9.14886 3.0586C9.12598 3.06892 9.10285 3.0791 9.07993 3.08912C8.96793 3.13809 8.8591 3.18565 8.78815 3.25319C8.71125 3.32639 8.51792 3.36896 8.31418 3.41383C8.18076 3.44322 8.04281 3.47357 7.93021 3.51418C7.86438 3.53791 7.80192 3.49654 7.73767 3.45387C7.67773 3.41407 7.61617 3.37322 7.54889 3.38332C7.51519 3.38838 7.47879 3.40552 7.43994 3.42384C7.40574 3.43998 7.36958 3.45707 7.33173 3.46755C7.29655 3.47725 7.21822 3.45471 7.11777 3.42604C7.05569 3.40832 6.98516 3.38831 6.91113 3.37184C6.71547 3.39762 6.51976 3.42235 6.3241 3.44533C6.28328 3.4816 6.24786 3.52869 6.21982 3.58913C6.1997 3.6325 6.18257 3.68433 6.16498 3.73733C6.14104 3.80944 6.11626 3.88396 6.08212 3.94339C6.05544 3.98982 6.02397 4.00832 6.00284 3.98904C5.993 3.98005 5.98544 3.9631 5.97858 3.94778C5.97072 3.93023 5.9637 3.91462 5.95514 3.91506C5.94896 3.91542 5.94254 3.92785 5.93463 3.9429C5.92201 3.96693 5.90559 3.99795 5.88062 3.99905C5.78766 4.00315 5.682 3.99323 5.57849 3.98343C5.46339 3.97253 5.35089 3.96196 5.26126 3.97122C5.16085 3.9816 5.01777 3.93545 4.87445 3.88943C4.77447 3.85733 4.67434 3.82539 4.58844 3.81228C4.50426 3.79944 4.41661 3.82497 4.33173 3.84988C4.22984 3.87978 4.13184 3.90866 4.04855 3.86819C4.03171 3.85997 4.0108 3.80993 3.98456 3.74734C3.96596 3.70297 3.94456 3.65225 3.9202 3.60549C3.81418 3.60549 3.70815 3.60343 3.60214 3.59963C3.59841 3.60642 3.59456 3.61333 3.5907 3.62038C3.59064 3.62054 3.59058 3.62071 3.59052 3.62087C3.50344 3.78008 3.38429 3.99786 3.21689 3.86794C3.17433 3.83492 3.14755 3.77392 3.12341 3.71902C3.09971 3.6651 3.07852 3.61685 3.04752 3.60671C3.0123 3.59522 2.97072 3.62833 2.92538 3.66433C2.86173 3.71488 2.79064 3.77136 2.7193 3.71877C2.71443 3.71518 2.70919 3.71124 2.70374 3.7073C2.65203 3.66989 2.57547 3.61455 2.4993 3.50319C2.27329 3.47346 2.04726 3.43865 1.82126 3.40065C1.44453 3.3373 1.06773 3.26507 0.69104 3.19288C0.507776 3.15735 0.332015 3.0057 0.202423 2.76294C0.0728232 2.51984 0 2.20742 0 1.88426C1.0812e-05 1.56114 0.0728328 1.24891 0.202423 1.00583C0.332016 0.763056 0.507768 0.611426 0.69104 0.575891C0.989885 0.518618 1.28883 0.461264 1.58771 0.408407C1.60337 0.401696 1.6191 0.395205 1.63477 0.389119C1.75128 0.343838 1.85938 0.252889 1.96756 0.16182C1.99241 0.140902 2.0173 0.119938 2.04227 0.0995633Z" fill="black"/>
</svg>
